# xmcd
# Track frame offsets:
# 150
# 16031
# 34103
# 51379
# 67638
# 84414
# 103649
# 120176
# 135916
# 153035
# 165644
# 191583
#
# Disc length: 2717 seconds
# Revision: 0
# Processed by: cddbd v1.5.2PL0 Copyright (c) Steve Scherf et al.
# Submitted via: VisiTrax 2.11.2.271 - For more info visit www.synapsa.com
#
DISCID=7f0a9b0c
DTITLE=Sideshow Annie - Song Cave
DYEAR=2012
DGENRE=Blues/Rock
TTITLE0=Little Gypsies
TTITLE1=Cold Day in Hell
TTITLE2=Lost Highway
TTITLE3=Spin
TTITLE4=Give a Little
TTITLE5=Voodoo Dolly
TTITLE6=Sting
TTITLE7=Monacle
TTITLE8=Storytime
TTITLE9=Thing
TTITLE10=Lost 4 Words
TTITLE11=Canasta
EXTD=
EXTT0=
EXTT1=
EXTT2=
EXTT3=
EXTT4=
EXTT5=
EXTT6=
EXTT7=
EXTT8=
EXTT9=
EXTT10=
EXTT11=
PLAYORDER=
